<svg xmlns="http://www.w3.org/2000/svg" viewBox="0 0 256 256"><defs><style>.cls-1{fill:#1d384d;}</style></defs><title>data mining</title><g id="icons_without_caption" data-name="icons without caption"><g id="DATA_MINING" data-name="DATA MINING"><path class="cls-1" d="M33.78,52.07V203.93H153.16V170.55l-4,4v25.39H37.78V56.07H149.16V166.49l4-4V52.07Z"/><rect class="cls-1" x="53.17" y="140.56" width="81.17" height="4"/><rect class="cls-1" x="52.91" y="158.73" width="71.89" height="4"/><rect class="cls-1" x="52.91" y="176.91" width="56.77" height="4"/><path class="cls-1" d="M52.17,89.3v35.6h17.3V89.3Zm13.3,31.6h-9.3V93.3h9.3Z"/><path class="cls-1" d="M74.46,89.3v35.6h17.3V89.3Zm13.3,31.6h-9.3V93.3h9.3Z"/><path class="cls-1" d="M96.75,102v22.92H114V102ZM110,120.91h-9.3V106H110Z"/><path class="cls-1" d="M119,72.78v52.12h17.3V72.78Zm13.3,48.12H123V76.78h9.3Z"/><polygon class="cls-1" points="201.86 108.13 196.78 113.2 193.96 116.03 196.79 118.86 199.61 116.03 201.86 113.78 205.89 117.81 203.64 120.06 200.82 122.89 203.65 125.72 206.47 122.89 211.55 117.81 201.86 108.13"/><polygon class="cls-1" points="192.94 130.76 153.16 170.54 149.16 174.54 125.93 197.78 121.9 193.75 188.91 126.73 191.74 123.91 188.91 121.08 116.24 193.75 125.93 203.44 198.6 130.76 195.77 127.94 192.94 130.76"/><path class="cls-1" d="M153.16,99.34a18,18,0,0,0-1.86.87l.82,3.74c.35,0,.7.06,1,.11,16.77,1.87,28.95,15.85,29.07,16h.11l2.83.12,1.41-1.42,5.05-5,1.41-1.42v-2.82C184.86,101.28,175.36,97,165.58,97A33.28,33.28,0,0,0,153.16,99.34Zm30.64,16.53c-3.29-3.35-11.83-11.1-23.43-14.45a30.23,30.23,0,0,1,5.21-.46c8.26,0,16.05,3.35,23.19,9.95Z"/><path class="cls-1" d="M209.78,126.21H207l-1.42,1.41-5,5.05-1.42,1.41.12,2.83V137c.14.12,14.7,12.81,16.1,30.11l3.74.82C219.16,167.74,230.45,146.88,209.78,126.21ZM217.86,159c-3.33-11.66-11.11-20.24-14.48-23.54l5-5C218.62,141.59,219.09,152.28,217.86,159Z"/><path class="cls-1" d="M203.51,119.94,199.61,116h0L193,109.47h-2.83l-7.87,7.87v2.83l3.74,3.74,2.83,2.83,4,4,2.83,2.83,3.31,3.31h2.83l1.47-1.46,5-5,1.44-1.44v-2.83Zm-3,12.72-4.73-4.73h0l-4-4h0l-5.16-5.16,5.05-5L194,116l2.83,2.83,4,4,2.83,2.83,1.89,1.89Z"/></g></g></svg>